# xmcd
#
# Track frame offsets:
#	150
#	13800
#	29300
#
# Disc length: 577 seconds
#
# Revision: 0
# Processed by: cddbd v1.4PL0 Copyright (c) Steve Scherf et al.
# Submitted via: audiograbber 1.81.01
#
DISCID=1b023f03
DTITLE=Faith Hill - The Way You Love Me Remix Promo CDS
DYEAR=2001
DGENRE=Pop
TTITLE0=The Way You Love Me (Love To Infinity Radio Edit)
TTITLE1=The Way You Love Me (Radio Remix Edit)
TTITLE2=The Way You Love Me (Album Version)
EXTD=
EXTT0=
EXTT1=
EXTT2=
PLAYORDER=
